<mxfile host="app.diagrams.net" modified="2023-09-19T16:18:19.291Z" agent="Mozilla/5.0 (Macintosh; Intel Mac OS X 10.15; rv:109.0) Gecko/20100101 Firefox/114.0" etag="TArOBeFHZn75i5n7WLv6" version="21.7.5" type="github">
  <diagram name="Page-1" id="QFaHgK8QH7e0BLoNnNYx">
    <mxGraphModel dx="1522" dy="1214" grid="0" gridSize="10" guides="1" tooltips="1" connect="1" arrows="1" fold="1" page="0" pageScale="1" pageWidth="850" pageHeight="1100" math="0" shadow="0">
      <root>
        <mxCell id="0" />
        <mxCell id="1" parent="0" />
        <mxCell id="hRvjMiP3mQMjn01Ku15W-1" value="VDM" style="rounded=1;whiteSpace=wrap;html=1;fontSize=16;" vertex="1" parent="1">
          <mxGeometry x="-150" y="109" width="120" height="60" as="geometry" />
        </mxCell>
        <mxCell id="hRvjMiP3mQMjn01Ku15W-5" value="TCM/DLU" style="rounded=1;whiteSpace=wrap;html=1;fontSize=16;" vertex="1" parent="1">
          <mxGeometry x="-150" y="-108" width="120" height="60" as="geometry" />
        </mxCell>
        <mxCell id="hRvjMiP3mQMjn01Ku15W-6" value="Dash" style="rounded=1;whiteSpace=wrap;html=1;fontSize=16;" vertex="1" parent="1">
          <mxGeometry x="-150" y="1" width="120" height="60" as="geometry" />
        </mxCell>
        <mxCell id="hRvjMiP3mQMjn01Ku15W-18" value="?" style="rounded=1;whiteSpace=wrap;html=1;fontSize=16;" vertex="1" parent="1">
          <mxGeometry x="-150" y="434" width="120" height="60" as="geometry" />
        </mxCell>
        <mxCell id="hRvjMiP3mQMjn01Ku15W-19" value="BCM" style="rounded=1;whiteSpace=wrap;html=1;fontSize=16;" vertex="1" parent="1">
          <mxGeometry x="-150" y="217" width="120" height="60" as="geometry" />
        </mxCell>
        <mxCell id="hRvjMiP3mQMjn01Ku15W-20" value="BMS" style="rounded=1;whiteSpace=wrap;html=1;fontSize=16;" vertex="1" parent="1">
          <mxGeometry x="-150" y="326" width="120" height="60" as="geometry" />
        </mxCell>
        <mxCell id="hRvjMiP3mQMjn01Ku15W-21" value="CAN1" style="shape=link;html=1;rounded=0;fontSize=12;startSize=8;endSize=8;curved=1;fillColor=#d5e8d4;strokeColor=#82b366;" edge="1" parent="1">
          <mxGeometry width="100" relative="1" as="geometry">
            <mxPoint x="39" y="-77" as="sourcePoint" />
            <mxPoint x="41" y="481" as="targetPoint" />
            <mxPoint as="offset" />
          </mxGeometry>
        </mxCell>
        <mxCell id="hRvjMiP3mQMjn01Ku15W-22" value="" style="shape=link;html=1;rounded=0;fontSize=12;startSize=8;endSize=8;curved=1;exitX=1;exitY=0.5;exitDx=0;exitDy=0;fillColor=#d5e8d4;strokeColor=#82b366;" edge="1" parent="1" source="hRvjMiP3mQMjn01Ku15W-5">
          <mxGeometry width="100" relative="1" as="geometry">
            <mxPoint x="150" y="176" as="sourcePoint" />
            <mxPoint x="41" y="-78" as="targetPoint" />
          </mxGeometry>
        </mxCell>
        <mxCell id="hRvjMiP3mQMjn01Ku15W-23" value="" style="shape=link;html=1;rounded=0;fontSize=12;startSize=8;endSize=8;curved=1;fillColor=#d5e8d4;strokeColor=#82b366;" edge="1" parent="1" source="hRvjMiP3mQMjn01Ku15W-6">
          <mxGeometry width="100" relative="1" as="geometry">
            <mxPoint x="-30" y="31" as="sourcePoint" />
            <mxPoint x="42" y="31" as="targetPoint" />
          </mxGeometry>
        </mxCell>
        <mxCell id="hRvjMiP3mQMjn01Ku15W-24" value="" style="shape=link;html=1;rounded=0;fontSize=12;startSize=8;endSize=8;curved=1;exitX=1;exitY=0.5;exitDx=0;exitDy=0;fillColor=#d5e8d4;strokeColor=#82b366;" edge="1" parent="1" source="hRvjMiP3mQMjn01Ku15W-1">
          <mxGeometry width="100" relative="1" as="geometry">
            <mxPoint x="150" y="176" as="sourcePoint" />
            <mxPoint x="40" y="139" as="targetPoint" />
          </mxGeometry>
        </mxCell>
        <mxCell id="hRvjMiP3mQMjn01Ku15W-25" value="" style="shape=link;html=1;rounded=0;fontSize=12;startSize=8;endSize=8;curved=1;fillColor=#d5e8d4;strokeColor=#82b366;" edge="1" parent="1">
          <mxGeometry width="100" relative="1" as="geometry">
            <mxPoint x="-30" y="247" as="sourcePoint" />
            <mxPoint x="42" y="247" as="targetPoint" />
          </mxGeometry>
        </mxCell>
        <mxCell id="hRvjMiP3mQMjn01Ku15W-26" value="" style="shape=link;html=1;rounded=0;fontSize=12;startSize=8;endSize=8;curved=1;exitX=1;exitY=0.5;exitDx=0;exitDy=0;fillColor=#d5e8d4;strokeColor=#82b366;" edge="1" parent="1" source="hRvjMiP3mQMjn01Ku15W-20">
          <mxGeometry width="100" relative="1" as="geometry">
            <mxPoint x="150" y="176" as="sourcePoint" />
            <mxPoint x="41" y="356" as="targetPoint" />
          </mxGeometry>
        </mxCell>
        <mxCell id="hRvjMiP3mQMjn01Ku15W-27" value="Motor Package" style="rounded=1;whiteSpace=wrap;html=1;fontSize=16;" vertex="1" parent="1">
          <mxGeometry x="112" y="134" width="83" height="43" as="geometry" />
        </mxCell>
        <mxCell id="hRvjMiP3mQMjn01Ku15W-30" value="" style="shape=link;html=1;rounded=0;fontSize=12;startSize=8;endSize=8;curved=1;" edge="1" parent="1" source="hRvjMiP3mQMjn01Ku15W-1">
          <mxGeometry width="100" relative="1" as="geometry">
            <mxPoint x="150" y="176" as="sourcePoint" />
            <mxPoint x="112" y="139" as="targetPoint" />
          </mxGeometry>
        </mxCell>
        <mxCell id="hRvjMiP3mQMjn01Ku15W-32" value="&lt;font style=&quot;font-size: 12px;&quot;&gt;CAN2&lt;/font&gt;" style="edgeLabel;html=1;align=center;verticalAlign=middle;resizable=0;points=[];fontSize=16;" vertex="1" connectable="0" parent="hRvjMiP3mQMjn01Ku15W-30">
          <mxGeometry x="0.6338" relative="1" as="geometry">
            <mxPoint as="offset" />
          </mxGeometry>
        </mxCell>
        <mxCell id="hRvjMiP3mQMjn01Ku15W-33" value="" style="endArrow=none;html=1;rounded=0;fontSize=12;startSize=8;endSize=8;curved=1;exitX=1;exitY=0.25;exitDx=0;exitDy=0;" edge="1" parent="1" source="hRvjMiP3mQMjn01Ku15W-1">
          <mxGeometry width="50" height="50" relative="1" as="geometry">
            <mxPoint x="175" y="201" as="sourcePoint" />
            <mxPoint x="264" y="121" as="targetPoint" />
          </mxGeometry>
        </mxCell>
        <mxCell id="hRvjMiP3mQMjn01Ku15W-34" value="ACC" style="rounded=1;whiteSpace=wrap;html=1;fontSize=16;" vertex="1" parent="1">
          <mxGeometry x="223" y="134" width="83" height="44" as="geometry" />
        </mxCell>
        <mxCell id="hRvjMiP3mQMjn01Ku15W-36" value="" style="endArrow=none;html=1;rounded=0;fontSize=12;startSize=8;endSize=8;curved=1;exitX=0.5;exitY=0;exitDx=0;exitDy=0;" edge="1" parent="1" source="hRvjMiP3mQMjn01Ku15W-34">
          <mxGeometry width="50" height="50" relative="1" as="geometry">
            <mxPoint x="204" y="208" as="sourcePoint" />
            <mxPoint x="264" y="121" as="targetPoint" />
          </mxGeometry>
        </mxCell>
        <mxCell id="hRvjMiP3mQMjn01Ku15W-43" value="" style="endArrow=none;html=1;rounded=0;fontSize=12;startSize=8;endSize=8;curved=1;exitX=1;exitY=0.25;exitDx=0;exitDy=0;" edge="1" parent="1" source="hRvjMiP3mQMjn01Ku15W-19">
          <mxGeometry width="50" height="50" relative="1" as="geometry">
            <mxPoint x="172" y="283" as="sourcePoint" />
            <mxPoint x="100" y="233" as="targetPoint" />
          </mxGeometry>
        </mxCell>
        <mxCell id="hRvjMiP3mQMjn01Ku15W-45" value="&lt;font style=&quot;font-size: 12px;&quot;&gt;Sensor Suite&lt;/font&gt;" style="rounded=1;whiteSpace=wrap;html=1;fontSize=16;" vertex="1" parent="1">
          <mxGeometry x="100" y="228" width="84" height="40" as="geometry" />
        </mxCell>
        <mxCell id="hRvjMiP3mQMjn01Ku15W-46" value="LCD" style="rounded=1;whiteSpace=wrap;html=1;fontSize=16;" vertex="1" parent="1">
          <mxGeometry x="115" y="42" width="85" height="41" as="geometry" />
        </mxCell>
        <mxCell id="hRvjMiP3mQMjn01Ku15W-48" value="" style="endArrow=none;html=1;rounded=0;fontSize=12;startSize=8;endSize=8;curved=1;exitX=1;exitY=0.25;exitDx=0;exitDy=0;" edge="1" parent="1" source="hRvjMiP3mQMjn01Ku15W-6">
          <mxGeometry width="50" height="50" relative="1" as="geometry">
            <mxPoint x="172" y="131" as="sourcePoint" />
            <mxPoint x="275" y="16" as="targetPoint" />
          </mxGeometry>
        </mxCell>
        <mxCell id="hRvjMiP3mQMjn01Ku15W-50" value="" style="endArrow=none;html=1;rounded=0;fontSize=12;startSize=8;endSize=8;curved=1;entryX=0.5;entryY=0;entryDx=0;entryDy=0;" edge="1" parent="1" target="hRvjMiP3mQMjn01Ku15W-46">
          <mxGeometry width="50" height="50" relative="1" as="geometry">
            <mxPoint x="158" y="17" as="sourcePoint" />
            <mxPoint x="250" y="42" as="targetPoint" />
          </mxGeometry>
        </mxCell>
        <mxCell id="hRvjMiP3mQMjn01Ku15W-51" value="&lt;font style=&quot;font-size: 12px;&quot;&gt;SwitchBoard&lt;/font&gt;" style="rounded=1;whiteSpace=wrap;html=1;fontSize=16;" vertex="1" parent="1">
          <mxGeometry x="222.5" y="40" width="84" height="45" as="geometry" />
        </mxCell>
        <mxCell id="hRvjMiP3mQMjn01Ku15W-58" value="" style="endArrow=none;html=1;rounded=0;fontSize=12;startSize=8;endSize=8;curved=1;exitX=0.5;exitY=0;exitDx=0;exitDy=0;" edge="1" parent="1" source="hRvjMiP3mQMjn01Ku15W-51">
          <mxGeometry width="50" height="50" relative="1" as="geometry">
            <mxPoint x="169" y="86" as="sourcePoint" />
            <mxPoint x="265" y="15" as="targetPoint" />
          </mxGeometry>
        </mxCell>
      </root>
    </mxGraphModel>
  </diagram>
</mxfile>
